#!OML:ASF H:\Terrain\Patient Classification 1\Animal2\Wednesday\Animal2.ASF
:FULLY-SPECIFIED
:DEGREES
3206
root -1.96091 17.048 7.72294 206.191 -188.357 -178.7
lowerback 15.408 1.50847 2.62152
upperback -7.78034 2.80003 0.652737
thorax -17.6213 1.01067 -1.57249
lowerneck 14.0606 15.0267 15.4346
upperneck -36.0616 18.8814 -25.8621
head -8.9786 10.563 -13.8178
rclavicle 2.5842e-014 2.06736e-014
rhumerus -48.0511 -14.7015 -63.0477
rradius 28.8064
rwrist 13.4669
rhand -7.38183 18.4722
rfingers 7.12502
rthumb 18.5036 -10.6677
lclavicle 2.5842e-014 2.06736e-014
lhumerus -54.5725 3.37282 67.3926
lradius 51.0667
lwrist 12.4507
lhand -14.7806 15.3073
lfingers 7.12502
lthumb 11.3764 44.9787
rfemur -50.3959 -2.78156 11.4127
rtibia 50.3771
rfoot -24.9052 -2.96947
rtoes 15.4163
lfemur -52.9047 -1.95945 -9.0511
ltibia 44.8601
lfoot -19.2714 -5.32343
ltoes -29.2811
3207
root -1.97289 17.0412 7.73163 206.097 -188.298 -178.502
lowerback 15.3409 1.51369 2.26773
upperback -7.81406 2.71376 0.589589
thorax -17.6351 1.00785 -1.41867
lowerneck 14.4279 14.841 15.7296
upperneck -36.2955 18.6728 -26.1056
head -9.1059 10.4626 -14.0599
rclavicle -1.39149e-015 -9.54166e-015
rhumerus -48.0332 -14.2761 -63.4639
rradius 29.1653
rwrist 12.6612
rhand -7.45026 18.2147
rfingers 7.12502
rthumb 18.4377 -10.9315
lclavicle -1.39149e-015 -9.54166e-015
lhumerus -54.5707 3.52982 67.0807
lradius 51.3871
lwrist 12.951
lhand -15.4289 14.3422
lfingers 7.12502
lthumb 10.7511 44.0471
rfemur -50.3283 -2.78618 11.2433
rtibia 50.5147
rfoot -24.969 -3.34027
rtoes 13.5374
lfemur -52.7457 -2.03574 -9.21352
ltibia 44.8698
lfoot -19.4219 -5.26501
ltoes -29.4996
3208
root -1.97866 17.0397 7.74156 205.89 -188.311 -178.594
lowerback 15.3948 1.49381 2.33912
upperback -7.8807 2.70026 0.545492
thorax -17.7498 0.986536 -1.5091
lowerneck 14.7575 14.6749 15.9184
upperneck -36.5924 18.5005 -26.1867
head -9.2825 10.3611 -14.237
rclavicle 8.74653e-015 7.95139e-015
rhumerus -48.1314 -13.8986 -63.853
rradius 29.5159
rwrist 12.0203
rhand -7.70243 18.3164
rfingers 7.12502
rthumb 18.1951 -10.8526
lclavicle 8.74653e-015 7.95139e-015
lhumerus -54.6204 3.61002 66.6911
lradius 51.8305
lwrist 13.7167
lhand -15.7005 14.1535
lfingers 7.12502
lthumb 10.4891 43.8718
rfemur -50.1284 -2.72077 11.3753
rtibia 50.6151
rfoot -25.0173 -3.48848
rtoes 13.1858
lfemur -52.5177 -2.10748 -9.05709
ltibia 44.9531
lfoot -19.6523 -5.11449
ltoes -29.7946
3209
root -1.98296 17.0378 7.75289 205.625 -188.303 -178.696
lowerback 15.4923 1.48429 2.40319
upperback -7.91597 2.7044 0.530997
thorax -17.8549 0.97658 -1.56754
lowerneck 14.3832 14.7056 15.8514
upperneck -36.2768 18.5367 -25.9315
head -9.13786 10.3497 -14.0193
rclavicle 5.56597e-014 -2.54444e-014
rhumerus -48.1151 -13.7403 -64.0347
rradius 29.8853
rwrist 11.9385
rhand -7.965 18.663
rfingers 7.12502
rthumb 17.9425 -10.5293
lclavicle 5.56597e-014 -2.54444e-014
lhumerus -54.5658 3.75395 66.3845
lradius 52.1563
lwrist 14.7644
lhand -16.4284 13.7184
lfingers 7.12502
lthumb 9.78681 43.471
rfemur -49.8204 -2.64855 11.4938
rtibia 50.6734
rfoot -25.1856 -3.02231
rtoes 14.5275
lfemur -52.241 -2.12686 -8.93728
ltibia 45.0869
lfoot -19.7858 -5.00434
ltoes -29.7761
3210
root -1.98627 17.0329 7.76576 205.445 -188.343 -178.79
lowerback 15.406 1.4706 2.45235
upperback -7.9007 2.69553 0.544402
thorax -17.7779 0.970048 -1.57348
lowerneck 13.717 14.8065 15.6987
upperneck -35.8256 18.5998 -25.7293
head -8.88482 10.3706 -13.7409
rclavicle -3.77691e-014 -6.36111e-015
rhumerus -47.9363 -13.6752 -64.1719
rradius 30.3025
rwrist 11.8595
rhand -7.87791 18.946
rfingers 7.12502
rthumb 18.0263 -10.2387
lclavicle -3.77691e-014 -6.36111e-015
lhumerus -54.3742 4.14235 66.0223
lradius 52.5445
lwrist 15.7679
lhand -16.9612 13.3416
lfingers 7.12502
lthumb 9.27282 43.1177
rfemur -49.5699 -2.65248 11.6325
rtibia 50.7097
rfoot -25.3554 -2.63134
rtoes 15.2276
lfemur -52.0803 -2.14828 -8.814
ltibia 45.2173
lfoot -19.759 -5.11986
ltoes -28.798
3211
root -1.98499 17.0304 7.77979 205.273 -188.425 -179.033
lowerback 15.2829 1.42632 2.71174
upperback -7.91907 2.69697 0.580185
thorax -17.7117 0.944988 -1.6743
lowerneck 13.532 14.8104 15.5684
upperneck -35.871 18.5659 -25.6211
head -8.90731 10.3452 -13.6708
rclavicle 3.93594e-014 1.59028e-014
rhumerus -47.8036 -13.4729 -64.4592
rradius 30.7777
rwrist 11.5581
rhand -7.78932 18.6133
rfingers 7.12502
rthumb 18.1115 -10.5635
lclavicle 3.93594e-014 1.59028e-014
lhumerus -54.406 4.52321 65.5827
lradius 53.1877
lwrist 16.555
lhand -17.1939 13.0155
lfingers 7.12502
lthumb 9.04828 42.8014
rfemur -49.3793 -2.68167 11.9545
rtibia 50.7204
rfoot -25.3465 -2.77256
rtoes 14.6721
lfemur -51.9103 -2.13475 -8.54352
ltibia 45.324
lfoot -19.7984 -5.2058
ltoes -28.5255
3212
root -1.98533 17.0296 7.7877 205.222 -188.476 -179.114
lowerback 15.2248 1.36699 2.82907
upperback -8.08862 2.64372 0.556114
thorax -17.8857 0.900218 -1.7534
lowerneck 13.6391 14.7583 15.5324
upperneck -35.9306 18.535 -25.436
head -8.99166 10.3009 -13.6325
rclavicle -8.15017e-015 -1.19271e-014
rhumerus -47.8923 -13.2288 -64.7069
rradius 31.3154
rwrist 11.4251
rhand -8.04699 18.3132
rfingers 7.12502
rthumb 17.8636 -10.8864
lclavicle -8.15017e-015 -1.19271e-014
lhumerus -54.7516 4.6429 65.1233
lradius 53.9431
lwrist 17.7971
lhand -17.0422 12.9214
lfingers 7.12502
lthumb 9.19466 42.7009
rfemur -49.3401 -2.71719 12.0692
rtibia 50.7404
rfoot -25.2793 -2.69627
rtoes 15.7234
lfemur -51.8768 -2.14887 -8.43998
ltibia 45.3958
lfoot -19.8771 -5.23079
ltoes -28.6813
3213
root -1.98889 17.0316 7.79759 205.186 -188.518 -179.026
lowerback 15.1402 1.31385 2.7726
upperback -8.27547 2.55098 0.488506
thorax -18.0717 0.854305 -1.77274
lowerneck 13.7455 14.6906 15.606
upperneck -35.8403 18.4937 -25.3221
head -8.9996 10.2559 -13.607
rclavicle -1.94809e-014 -1.27222e-014
rhumerus -48.0323 -12.9933 -64.8832
rradius 31.8151
rwrist 11.314
rhand -8.33967 18.7723
rfingers 7.12502
rthumb 17.582 -10.4527
lclavicle -1.94809e-014 -1.27222e-014
lhumerus -55.0364 4.80892 64.6264
lradius 54.6242
lwrist 19.4974
lhand -16.5553 13.2631
lfingers 7.12502
lthumb 9.66439 43.0214
rfemur -49.2418 -2.76116 11.9946
rtibia 50.7659
rfoot -25.2726 -2.42308
rtoes 17.3204
lfemur -51.8472 -2.21949 -8.50096
ltibia 45.4535
lfoot -19.9569 -5.41858
ltoes -27.7689
3214
root -1.99582 17.032 7.81244 204.927 -188.602 -179.148
lowerback 15.1482 1.24938 2.87986
upperback -8.34753 2.4918 0.496865
thorax -18.1688 0.812708 -1.80723
lowerneck 13.7348 14.627 15.6651
upperneck -35.6848 18.4312 -25.2379
head -8.96359 10.2082 -13.5632
rclavicle -8.54774e-015 1.98785e-014
rhumerus -47.9482 -12.7942 -65.1113
rradius 32.2266
rwrist 11.06
rhand -8.43058 18.9174
rfingers 7.12502
rthumb 17.4945 -10.3155
lclavicle -8.54774e-015 1.98785e-014
lhumerus -55.1799 5.19865 64.1833
lradius 55.302
lwrist 21.0869
lhand -16.5823 13.7231
lfingers 7.12502
lthumb 9.63832 43.4826
rfemur -48.9239 -2.76266 12.2097
rtibia 50.8048
rfoot -25.3059 -2.73473
rtoes 15.7873
lfemur -51.5622 -2.22785 -8.35083
ltibia 45.5151
lfoot -20.0848 -5.55271
ltoes -27.6289
3215
root -2.00276 17.0249 7.82151 204.657 -188.635 -179.29
lowerback 15.2731 1.20815 2.96684
upperback -8.40067 2.4655 0.5143
thorax -18.3192 0.787403 -1.83322
lowerneck 13.7966 14.5083 15.685
upperneck -35.7112 18.2622 -25.2473
head -9.02127 10.1228 -13.5999
rclavicle 3.77691e-015 -1.59028e-014
rhumerus -47.7724 -12.6302 -65.3767
rradius 32.7039
rwrist 10.6971
rhand -8.63748 18.6238
rfingers 7.12502
rthumb 17.2954 -10.6266
lclavicle 3.77691e-015 -1.59028e-014
lhumerus -55.2422 5.70259 63.7768
lradius 55.9189
lwrist 22.5795
lhand -16.9838 14.2448
lfingers 7.12502
lthumb 9.25102 44.0219
rfemur -48.6644 -2.75198 12.4381
rtibia 50.8908
rfoot -25.4172 -3.03457
rtoes 13.9996
lfemur -51.2943 -2.28263 -8.16327
ltibia 45.5732
lfoot -20.2568 -5.11973
ltoes -29.5457
